HIERARCHY
ROOT joint_Root
{
	OFFSET 0.0 0.0 0.0
	CHANNELS 6 Xposition Yposition Zposition Zrotation Xrotation Yrotation 
	JOINT Hips
	{
		OFFSET 4.5925 91.4895 -427.239
		CHANNELS 6 Xposition Yposition Zposition Zrotation Xrotation Yrotation 
		JOINT Spine
		{
			OFFSET 15.7357 0.0 0.0
			CHANNELS 6 Xposition Yposition Zposition Zrotation Xrotation Yrotation 
			JOINT Chest
			{
				OFFSET 8.98455 -0.406207 0.0
				CHANNELS 6 Xposition Yposition Zposition Zrotation Xrotation Yrotation 
				JOINT Neck
				{
					OFFSET 16.3773 0.0 0.0
					CHANNELS 6 Xposition Yposition Zposition Zrotation Xrotation Yrotation 
					JOINT Head
					{
						OFFSET 6.45672 0.0 0.0
						CHANNELS 6 Xposition Yposition Zposition Zrotation Xrotation Yrotation 
						End Site
						{
							OFFSET 0.0 0.0 0.0
						}
					}
				}
				JOINT Shoulder_L
				{
					OFFSET 12.9942 -0.242716 4.98039
					CHANNELS 6 Xposition Yposition Zposition Zrotation Xrotation Yrotation 
					JOINT UpperArm_L
					{
						OFFSET 5.34809 0.0 0.0
						CHANNELS 6 Xposition Yposition Zposition Zrotation Xrotation Yrotation 
						JOINT LowerArm_L
						{
							OFFSET 24.3286 1.87007e-05 0.0
							CHANNELS 6 Xposition Yposition Zposition Zrotation Xrotation Yrotation 
							JOINT Hand_L
							{
								OFFSET 22.2916 0.0 0.0
								CHANNELS 6 Xposition Yposition Zposition Zrotation Xrotation Yrotation 
								End Site
								{
									OFFSET 0.0 0.0 0.0
								}
							}
						}
					}
				}
				JOINT Shoulder_R
				{
					OFFSET 12.9945 -0.242716 -4.98039
					CHANNELS 6 Xposition Yposition Zposition Zrotation Xrotation Yrotation 
					JOINT UpperArm_R
					{
						OFFSET -5.34813 0.0 0.0
						CHANNELS 6 Xposition Yposition Zposition Zrotation Xrotation Yrotation 
						JOINT LowerArm_R
						{
							OFFSET -24.3289 0.000322201 0.0
							CHANNELS 6 Xposition Yposition Zposition Zrotation Xrotation Yrotation 
							JOINT Hand_R
							{
								OFFSET -22.2915 -0.000108084 0.0
								CHANNELS 6 Xposition Yposition Zposition Zrotation Xrotation Yrotation 
								End Site
								{
									OFFSET 0.0 0.0 0.0
								}
							}
						}
					}
				}
			}
		}
		JOINT UpperLeg_L
		{
			OFFSET -2.19248 -6.46944 0.0
			CHANNELS 6 Xposition Yposition Zposition Zrotation Xrotation Yrotation 
			JOINT LowerLeg_L
			{
				OFFSET 39.0811 0.0 -1.23785e-05
				CHANNELS 6 Xposition Yposition Zposition Zrotation Xrotation Yrotation 
				JOINT Foot_L
				{
					OFFSET 40.9854 0.0 -1.26872e-05
					CHANNELS 6 Xposition Yposition Zposition Zrotation Xrotation Yrotation 
					JOINT Toes_L
					{
						OFFSET 11.7543 0.0 0.0
						CHANNELS 6 Xposition Yposition Zposition Zrotation Xrotation Yrotation 
						End Site
						{
							OFFSET 0.0 0.0 0.0
						}
					}
				}
			}
		}
		JOINT UpperLeg_R
		{
			OFFSET -2.19251 6.46944 0.0
			CHANNELS 6 Xposition Yposition Zposition Zrotation Xrotation Yrotation 
			JOINT LowerLeg_R
			{
				OFFSET -39.0811 -0.00228153 -0.0401928
				CHANNELS 6 Xposition Yposition Zposition Zrotation Xrotation Yrotation 
				JOINT Foot_R
				{
					OFFSET -40.9854 0.0 0.0
					CHANNELS 6 Xposition Yposition Zposition Zrotation Xrotation Yrotation 
					JOINT Toes_R
					{
						OFFSET -11.7543 0.0 0.0
						CHANNELS 6 Xposition Yposition Zposition Zrotation Xrotation Yrotation 
						End Site
						{
							OFFSET 0.0 0.0 0.0
						}
					}
				}
			}
		}
	}
}
MOTION
Frames:	9
Frame Time:	0.0333333
0.000000 0.000000 0.000000 0.000000 0.000000 -0.000000 -4.223790 80.656900 -2.149880 86.533300 -5.584850 6.751470 15.735700 0.000005 -0.000001 85.168300 81.185700 -84.915000 8.984550 -0.406207 -0.000000 9.805620 -1.471310 0.632426 16.377300 -0.000001 -0.000001 -3.982210 -0.437654 0.898533 6.456720 -0.000001 -0.000000 -5.877010 1.793000 1.597790 12.994200 -0.242716 4.980390 -90.760600 3.036900 -75.932200 5.348090 -0.000007 -0.000001 -65.055800 26.462300 -12.279100 24.328600 0.000019 0.000005 10.671500 18.562000 -30.623700 22.291600 -0.000001 0.000005 12.271800 5.258610 1.204140 12.994500 -0.242716 -4.980390 88.577900 9.356850 -81.318100 -5.348130 -0.000001 -0.000004 -63.020300 11.447600 -18.310000 -24.328900 0.000322 -0.000009 -5.338830 -14.490300 -20.475900 -22.291500 -0.000108 -0.000004 17.911400 5.332420 -0.854083 -2.192480 -6.469440 -0.000000 -167.503000 -16.534800 -21.011700 39.081100 -0.000007 -0.000012 -0.491095 0.212750 66.578100 40.985400 -0.000006 -0.000013 -0.627297 8.246180 -86.954900 11.754300 -0.000000 0.000003 -0.000402 -0.003321 -16.700000 -2.192510 6.469440 -0.000001 -176.975000 10.480200 158.144000 -39.081100 -0.002282 -0.040193 0.085602 -0.037040 65.806600 -40.985400 0.000008 0.000006 7.833300 1.588570 -87.288900 -11.754300 -0.000006 -0.000006 -1.133770 -1.435930 -16.084500
0.000000 0.000000 0.000000 0.000000 0.000000 -0.000000 -4.891160 82.034900 -1.198430 86.693100 -4.081740 6.872520 15.735700 0.000005 -0.000001 82.655300 81.789700 -83.483900 8.984550 -0.406207 -0.000000 8.509440 -2.094540 -1.499800 16.377300 -0.000001 -0.000001 -3.995130 -0.444207 0.497911 6.456720 -0.000001 -0.000000 -5.689960 1.681100 2.711980 12.994200 -0.242716 4.980390 -90.910100 3.513910 -75.469900 5.348090 -0.000007 -0.000001 -64.950200 22.855000 -10.623900 24.328600 0.000019 0.000005 9.908150 18.821300 -28.432200 22.291600 -0.000001 0.000005 12.563000 5.215090 2.338010 12.994500 -0.242716 -4.980390 88.533600 8.757470 -80.455900 -5.348130 -0.000001 -0.000004 -60.070600 6.216810 -17.968900 -24.328900 0.000322 -0.000009 -4.160470 -13.255700 -17.596600 -22.291500 -0.000108 -0.000004 12.865800 5.301860 0.020678 -2.192480 -6.469440 -0.000000 -166.983000 -16.562300 -18.428800 39.081100 -0.000007 -0.000012 -0.416765 0.216895 62.507300 40.985400 -0.000006 -0.000013 -0.525598 9.890890 -85.382900 11.754300 -0.000000 0.000003 -0.000373 -0.003122 -16.693000 -2.192510 6.469440 -0.000001 -177.015000 11.822900 161.036000 -39.081100 -0.002282 -0.040193 0.081169 -0.041588 61.928600 -40.985400 0.000008 0.000006 7.973560 1.492350 -86.047800 -11.754300 -0.000006 -0.000006 -1.244460 -1.576970 -16.255600
0.000000 0.000000 0.000000 0.000000 0.000000 -0.000000 -5.597650 84.454900 -0.049037 86.535200 -2.120290 6.685620 15.735700 0.000005 -0.000001 77.701400 82.673800 -79.656400 8.984550 -0.406207 -0.000000 6.507560 -3.090090 -3.730550 16.377300 -0.000001 -0.000001 -3.267370 -0.510746 -0.036803 6.456720 -0.000001 -0.000000 -5.364370 1.205910 4.045080 12.994200 -0.242716 4.980390 -90.889000 3.235330 -74.627400 5.348090 -0.000007 -0.000001 -65.565500 18.392900 -7.460480 24.328600 0.000019 0.000005 8.245950 16.717100 -26.739600 22.291600 -0.000001 0.000005 11.957200 5.222590 2.146230 12.994500 -0.242716 -4.980390 88.588400 7.679740 -79.551800 -5.348130 -0.000001 -0.000004 -54.541600 -1.022750 -18.636300 -24.328900 0.000322 -0.000009 -3.494430 -12.492900 -15.759500 -22.291500 -0.000108 -0.000004 12.507600 5.274510 0.775815 -2.192480 -6.469440 -0.000000 -166.429000 -15.865300 -14.590000 39.081100 -0.000007 -0.000012 -0.356929 0.249118 55.087800 40.985400 -0.000006 -0.000013 -0.943302 11.256500 -82.150100 11.754300 -0.000000 0.000003 -0.000250 -0.002234 -16.661300 -2.192510 6.469440 -0.000001 -176.817000 13.712100 165.506000 -39.081100 -0.002282 -0.040193 0.067174 -0.045678 54.460600 -40.985400 0.000008 0.000006 8.064660 1.904420 -83.082500 -11.754300 -0.000006 -0.000006 -1.281430 -1.614760 -16.551600
0.000000 0.000000 0.000000 0.000000 0.000000 -0.000000 -6.155260 87.112700 1.112850 86.292000 0.045894 6.174950 15.735700 0.000005 -0.000001 70.562400 83.598200 -73.475000 8.984550 -0.406207 -0.000000 4.217790 -4.163950 -5.666900 16.377300 -0.000001 -0.000001 -2.124830 -0.909368 -0.441513 6.456720 -0.000001 -0.000000 -4.944680 0.769106 5.259070 12.994200 -0.242716 4.980390 -90.824000 2.868340 -73.964800 5.348090 -0.000007 -0.000001 -65.735500 14.264400 -3.847550 24.328600 0.000019 0.000005 8.025750 16.643700 -26.210100 22.291600 -0.000001 0.000005 10.840100 5.227050 2.031670 12.994500 -0.242716 -4.980390 88.805500 5.886220 -78.507400 -5.348130 -0.000001 -0.000004 -47.826100 -12.156700 -21.869800 -24.328900 0.000322 -0.000009 -4.323770 -16.543000 -14.867900 -22.291500 -0.000108 -0.000004 13.363400 5.231010 1.929180 -2.192480 -6.469440 -0.000000 -166.115000 -14.884000 -10.279400 39.081100 -0.000007 -0.000012 -0.257587 0.250399 45.811200 40.985400 -0.000006 -0.000013 -1.654330 12.395500 -77.957100 11.754300 -0.000000 0.000003 -0.000135 -0.001327 -16.628100 -2.192510 6.469440 -0.000001 -176.721000 16.304100 170.481000 -39.081100 -0.002282 -0.040193 0.049407 -0.045909 45.145500 -40.985400 0.000008 0.000006 8.127330 3.057670 -78.840100 -11.754300 -0.000006 -0.000006 -1.302800 -1.618640 -17.186400
0.000000 0.000000 0.000000 0.000000 0.000000 -0.000000 -6.445680 89.256100 1.961260 86.508000 1.490970 4.874030 15.735700 0.000005 -0.000001 62.213000 84.558000 -65.894700 8.984550 -0.406207 -0.000000 1.723430 -4.877090 -7.286170 16.377300 -0.000001 -0.000001 -1.088740 -1.048270 -0.905447 6.456720 -0.000001 -0.000000 -4.747620 0.604766 5.990310 12.994200 -0.242716 4.980390 -90.821900 2.733150 -73.256300 5.348090 -0.000007 -0.000001 -64.987000 12.220500 -1.213270 24.328600 0.000019 0.000005 7.952240 17.219800 -25.261100 22.291600 -0.000001 0.000005 10.331100 5.215540 2.326500 12.994500 -0.242716 -4.980390 89.187500 3.819710 -77.982000 -5.348130 -0.000001 -0.000004 -39.489900 -24.718900 -27.777800 -24.328900 0.000322 -0.000009 -5.789910 -21.870800 -15.224200 -22.291500 -0.000108 -0.000004 13.982300 5.240580 1.680430 -2.192480 -6.469440 -0.000000 -166.909000 -14.412700 -7.126370 39.081100 -0.000007 -0.000012 -0.023068 0.030449 37.148600 40.985400 -0.000006 -0.000013 -0.576763 12.383600 -74.367800 11.754300 -0.000000 0.000003 -0.985150 -1.246640 -15.804200 -2.192510 6.469440 -0.000001 -177.081000 19.083700 173.833000 -39.081100 -0.002282 -0.040193 0.034039 -0.041039 36.845700 -40.985400 0.000008 0.000006 8.189510 5.232430 -74.259800 -11.754300 -0.000006 -0.000006 -1.540840 -1.877540 -18.210200
0.000000 0.000000 0.000000 0.000000 0.000000 -0.000000 -6.477270 90.606600 2.452520 86.627300 2.128360 3.458760 15.735700 0.000005 -0.000001 56.551800 85.407900 -60.484600 8.984550 -0.406207 -0.000000 -0.253280 -4.786050 -7.874410 16.377300 -0.000001 -0.000001 -0.440491 -1.024630 -1.407980 6.456720 -0.000001 -0.000000 -4.922050 0.486665 5.907240 12.994200 -0.242716 4.980390 -90.908700 2.942180 -72.828400 5.348090 -0.000007 -0.000001 -64.027000 11.371500 0.120618 24.328600 0.000019 0.000005 8.143780 19.021700 -23.704500 22.291600 -0.000001 0.000005 10.161700 5.202050 2.667980 12.994500 -0.242716 -4.980390 89.973200 0.134934 -78.809800 -5.348130 -0.000001 -0.000004 -30.190700 -38.072400 -32.452800 -24.328900 0.000322 -0.000009 -8.128110 -25.768900 -18.183900 -22.291500 -0.000108 -0.000004 14.938300 5.313790 -0.316690 -2.192480 -6.469440 -0.000000 -167.761000 -13.567600 -5.610320 39.081100 -0.000007 -0.000012 0.020563 -0.033878 31.256200 40.985400 -0.000006 -0.000013 -0.281703 11.434600 -71.137900 11.754300 -0.000000 0.000003 -1.123690 -1.423740 -16.049400 -2.192510 6.469440 -0.000001 -177.374000 21.588400 175.641000 -39.081100 -0.002282 -0.040193 0.023973 -0.034388 31.013100 -40.985400 0.000008 0.000006 8.135870 8.015370 -71.022600 -11.754300 -0.000006 -0.000006 -1.275360 -1.540460 -18.428300
0.000000 0.000000 0.000000 0.000000 0.000000 -0.000000 -6.363490 91.273500 2.774710 86.951800 1.766730 2.540370 15.735700 0.000005 -0.000001 58.894800 86.117300 -62.911400 8.984550 -0.406207 -0.000000 -1.234360 -3.695730 -8.071820 16.377300 -0.000001 -0.000001 -0.377602 -1.243060 -1.270190 6.456720 -0.000001 -0.000000 -5.297450 0.391882 5.171470 12.994200 -0.242716 4.980390 -90.942100 3.017650 -72.652300 5.348090 -0.000007 -0.000001 -62.990200 10.271000 0.197641 24.328600 0.000019 0.000005 8.661310 21.661100 -22.425500 22.291600 -0.000001 0.000005 9.713700 5.171780 3.417120 12.994500 -0.242716 -4.980390 91.029900 -5.349540 -79.086600 -5.348130 -0.000001 -0.000004 -20.761000 -50.612600 -34.636000 -24.328900 0.000322 -0.000009 -10.687900 -25.720000 -23.502200 -22.291500 -0.000108 -0.000004 15.695300 5.401420 -2.982790 -2.192480 -6.469440 -0.000000 -168.718000 -12.447400 -4.412990 39.081100 -0.000007 -0.000012 0.013553 -0.026093 27.447400 40.985400 -0.000006 -0.000013 -0.610896 9.565880 -69.215700 11.754300 -0.000000 0.000003 -1.471250 -1.876970 -16.328900 -2.192510 6.469440 -0.000001 -177.752000 22.298500 176.686000 -39.081100 -0.002282 -0.040193 0.017576 -0.027402 27.507300 -40.985400 0.000008 0.000006 8.088730 9.609080 -69.302700 -11.754300 -0.000006 -0.000006 -1.488500 -1.791590 -18.681600
0.000000 0.000000 0.000000 0.000000 0.000000 -0.000000 -6.354310 91.512900 2.823780 87.529500 1.090260 1.791270 15.735700 0.000005 -0.000001 66.744000 86.593800 -70.729200 8.984550 -0.406207 -0.000000 -1.577080 -2.364710 -8.001230 16.377300 -0.000001 -0.000001 -0.568996 -1.630020 -0.319806 6.456720 -0.000001 -0.000000 -5.831150 0.562361 3.558900 12.994200 -0.242716 4.980390 -90.927400 2.940300 -72.485500 5.348090 -0.000007 -0.000001 -62.346500 8.341630 -0.342550 24.328600 0.000019 0.000005 9.117330 23.488600 -21.932300 22.291600 -0.000001 0.000005 9.971040 5.142820 4.114280 12.994500 -0.242716 -4.980390 92.420100 -11.144400 -77.666600 -5.348130 -0.000001 -0.000004 -11.857700 -62.756700 -36.446400 -24.328900 0.000322 -0.000009 -11.577000 -20.963600 -29.794900 -22.291500 -0.000108 -0.000004 17.959200 5.451050 -4.673200 -2.192480 -6.469440 -0.000000 -169.581000 -12.385100 -3.912960 39.081100 -0.000007 -0.000012 0.011189 -0.023578 25.385900 40.985400 -0.000006 -0.000013 -0.785296 8.703500 -68.453700 11.754300 -0.000000 0.000003 -1.510660 -1.938320 -16.167500 -2.192510 6.469440 -0.000001 -177.999000 21.828900 176.924000 -39.081100 -0.002282 -0.040193 0.012518 -0.019233 25.579700 -40.985400 0.000008 0.000006 8.327030 9.702330 -69.057800 -11.754300 -0.000006 -0.000006 -1.858730 -2.266540 -18.427100
0.000000 0.000000 0.000000 0.000000 0.000000 -0.000000 -6.495660 91.527600 2.749900 88.158000 0.792408 1.371480 15.735700 0.000005 -0.000001 72.473300 86.711200 -76.435000 8.984550 -0.406207 -0.000000 -1.538930 -1.659090 -7.943750 16.377300 -0.000001 -0.000001 -0.397673 -2.239720 1.500580 6.456720 -0.000001 -0.000000 -6.340470 1.519820 1.577340 12.994200 -0.242716 4.980390 -90.801100 2.509340 -72.288200 5.348090 -0.000007 -0.000001 -62.180600 5.612910 -0.620200 24.328600 0.000019 0.000005 9.571160 24.196700 -22.362000 22.291600 -0.000001 0.000005 11.342600 5.119840 4.654900 12.994500 -0.242716 -4.980390 93.935900 -15.413400 -75.487200 -5.348130 -0.000001 -0.000004 -4.542140 -74.382800 -39.439100 -24.328900 0.000322 -0.000009 -10.407100 -13.920000 -37.360200 -22.291500 -0.000108 -0.000004 22.188100 5.506960 -6.801440 -2.192480 -6.469440 -0.000000 -170.029000 -13.529600 -3.924280 39.081100 -0.000007 -0.000012 0.010898 -0.023744 24.654100 40.985400 -0.000006 -0.000013 -1.126340 9.644190 -67.969800 11.754300 -0.000000 0.000003 -1.526030 -1.961540 -16.122300 -2.192510 6.469440 -0.000001 -178.213000 21.189200 177.021000 -39.081100 -0.002282 -0.040193 0.008992 -0.012397 24.614500 -40.985400 0.000008 0.000006 8.614180 9.072350 -69.945200 -11.754300 -0.000006 -0.000006 -1.419290 -1.756920 -17.463900
